<?xml version="1.0" encoding="UTF-8"?>
<!-- Generated by Pixelmator Pro 3.6.7 -->
<svg width="364" height="480" viewBox="0 0 364 480" xmlns="http://www.w3.org/2000/svg">
    <g id="Dry-Ice">
        <linearGradient id="linearGradient1" x1="183.51795" y1="478.076481" x2="183.51795" y2="0.773706" gradientUnits="userSpaceOnUse">
            <stop offset="0" stop-color="#d050e6" stop-opacity="1"/>
            <stop offset="1" stop-color="#52c3f6" stop-opacity="1"/>
        </linearGradient>
        <path id="Path" fill="url(#linearGradient1)" stroke="none" d="M 282.142853 444.894043 C 462.354523 295.023407 283.165039 204.29184 262.323761 120.864655 C 255.513672 93.603943 227.902435 85.39975 217.430161 121.738434 C 195.711014 197.102966 128.111862 115.796448 153.99173 44.755341 C 175.01535 -12.955109 134.115005 0.070129 123.141945 7.468536 C 63.362103 47.775818 81.170509 140.382782 53.019199 199.127991 C 35.470478 235.749237 -4.111971 278.137695 7.336246 358.671906 C 14.498167 409.053528 169.373703 538.677002 282.142853 444.894043 Z"/>
        <path id="path1" fill="#c4c3cf" stroke="none" opacity="0.75" style="mix-blend-mode:soft-light" d="M 318.211334 267.672516 L 318.211334 422.961548 C 318.211426 430.274994 313.534912 436.768005 306.601532 439.080841 L 188.836502 478.362274 C 187.105087 478.940002 185.29187 479.234497 183.466721 479.234467 L 135.782822 368.445679 C 192.997574 286.764648 176.998245 308.63266 208.393494 268.535156 L 312.487305 254.957184 C 316.126465 258.180176 318.21048 262.809509 318.211334 267.672516 Z"/>
        <path id="path2" fill="#d3d2de" stroke="none" opacity="0.75" style="mix-blend-mode:soft-light" d="M 48.721558 267.672516 L 48.721558 422.961548 C 48.721478 430.274994 53.397999 436.768005 60.331356 439.080841 L 178.09639 478.362274 C 179.82782 478.940002 181.641037 479.234497 183.466202 479.234467 L 183.466202 300.371704 L 155.018372 260.501617 L 54.445274 254.957321 C 50.806293 258.180298 48.722424 262.809601 48.721558 267.672516 Z"/>
        <path id="path3" fill="#e6e5f2" stroke="none" opacity="0.75" style="mix-blend-mode:soft-light" d="M 312.487122 254.957184 C 310.775055 253.436249 308.772736 252.278305 306.601013 251.553345 L 188.835785 212.271942 C 185.350388 211.109406 181.582214 211.109406 178.096817 212.271942 L 60.331776 251.553345 C 58.160034 252.278244 56.157684 253.436188 54.445702 254.957184 L 183.4664 300.371704 Z"/>
        <path id="path4" fill="#53c2f7" stroke="none" d="M 235.343079 70.754364 C 256.232971 61.938477 242.684433 21.561462 222.652847 23.307922 C 204.408722 24.898621 207.336502 82.573486 235.343079 70.754364 Z"/>
    </g>
    <path id="Path-copy-3" fill="#ffffff" stroke="none" opacity="0.252985" d="M 318.211334 267.672516 L 318.211334 422.961548 C 318.211426 430.274994 313.534912 436.768005 306.601532 439.080841 L 188.836502 478.362274 C 187.105087 478.940002 185.29187 479.234497 183.466721 479.234467 L 135.782822 368.445679 C 192.997574 286.764648 176.998245 308.63266 208.393494 268.535156 L 312.487305 254.957184 C 316.126465 258.180176 318.21048 262.809509 318.211334 267.672516 Z"/>
    <path id="Path-copy-2" fill="#ffffff" stroke="none" opacity="0.252985" d="M 48.721558 267.672516 L 48.721558 422.961548 C 48.721478 430.274994 53.397999 436.768005 60.331356 439.080841 L 178.09639 478.362274 C 179.82782 478.940002 181.641037 479.234497 183.466202 479.234467 L 183.466202 300.371704 L 155.018372 260.501617 L 54.445274 254.957321 C 50.806293 258.180298 48.722424 262.809601 48.721558 267.672516 Z"/>
    <path id="Path-copy" fill="#e6e5f2" stroke="none" opacity="0.25" d="M 312.487122 254.957184 C 310.775055 253.436249 308.772736 252.278305 306.601013 251.553345 L 188.835785 212.271942 C 185.350388 211.109406 181.582214 211.109406 178.096817 212.271942 L 60.331776 251.553345 C 58.160034 252.278244 56.157684 253.436188 54.445702 254.957184 L 183.4664 300.371704 Z"/>
    <g id="Group" style="mix-blend-mode:overlay">
        <path id="path5" fill="#000000" stroke="none" d="M 160.954407 413.52951 L 71.59742 382.792114 C 65.426201 380.669342 60.427811 373.94812 60.427811 367.772736 L 60.427811 311.886627 C 60.427811 305.711182 65.426201 302.428711 71.59742 304.551514 L 160.954407 335.28894 C 167.125626 337.411713 172.124084 344.132874 172.124084 350.308289 L 172.124084 406.194458 C 172.124084 412.369873 167.125626 415.652283 160.954407 413.52951 Z"/>
        <path id="path6" fill="#000000" stroke="none" d="M 105.106308 394.318665 L 127.445587 402.002991 L 127.445587 424.357452 L 105.106308 416.673126 Z"/>
        <path id="path7" fill="#000000" stroke="none" d="M 138.615189 417.022369 L 93.936699 401.653717 C 87.76548 399.530914 82.767029 402.813324 82.767029 408.988739 L 149.784805 432.041809 C 149.784805 425.866364 144.786407 419.145203 138.615189 417.022369 Z"/>
        <path id="path8" fill="#000000" stroke="none" d="M 105.106308 394.318665 L 127.445587 402.002991 L 127.445587 407.591614 L 105.106308 399.907288 Z"/>
        <path id="path9" fill="#000000" stroke="none" d="M 293.292175 392.236176 L 203.098251 426.040894 C 196.869263 428.375488 191.82605 425.218567 191.828506 418.986237 L 191.850983 362.585114 C 191.853439 356.352783 196.900742 349.414001 203.12973 347.079285 L 293.323578 313.274597 C 299.552582 310.940002 304.595795 314.096924 304.593323 320.329254 L 304.570831 376.730347 C 304.56839 382.962708 299.521149 389.90155 293.292175 392.236176 Z"/>
        <path id="path10" fill="#ffffff" stroke="none" d="M 259.464905 416.193146 L 236.916489 424.644348 L 225.646744 417.589722 L 270.743652 400.687378 Z"/>
        <path id="path11" fill="#ffffff" stroke="none" d="M 287.659515 383.068756 L 208.739883 412.647888 C 205.628174 413.814117 203.10376 412.233856 203.10498 409.120544 L 203.122986 363.999664 C 203.124222 360.886292 205.65065 357.412994 208.76236 356.246765 L 287.682007 326.667603 C 290.79364 325.501373 293.318085 327.081665 293.316833 330.194946 L 293.298889 375.315857 C 293.297668 378.429199 290.771179 381.902496 287.659515 383.068756 Z"/>
        <path id="path12" fill="#ffffff" stroke="none" d="M 155.369644 400.431213 L 77.182251 373.536011 C 74.099426 372.475525 71.59742 369.111206 71.59742 366.026276 L 71.59742 321.317383 C 71.59742 318.232452 74.099426 316.589417 77.182251 317.649902 L 155.369644 344.545044 C 158.452469 345.60553 160.954407 348.969849 160.954407 352.054779 L 160.954407 396.763672 C 160.954407 399.848572 158.452469 401.491638 155.369644 400.431213 Z"/>
        <path id="path13" fill="#ffffff" stroke="none" d="M 298.924744 401.403625 L 197.456665 439.433899 C 194.344955 440.600159 191.820541 439.019897 191.821762 435.906586 C 191.822998 432.793243 194.349487 429.319946 197.461136 428.153687 L 298.92926 390.123383 C 302.040924 388.957153 304.565338 390.537384 304.564117 393.650696 C 304.562866 396.764038 302.036438 400.237335 298.924744 401.403625 Z"/>
        <path id="path14" fill="#ffffff" stroke="none" d="M 244.215576 241.982208 L 196.547928 225.662552 C 192.162537 224.161087 186.193344 223.923157 183.223801 225.131317 L 118.669624 251.396103 C 115.700089 252.604263 116.849274 254.803421 121.234665 256.30481 L 168.902328 272.624451 C 173.28772 274.125916 179.256912 274.363831 182.22644 273.155701 L 246.780685 246.890854 C 249.750153 245.682755 248.600967 243.483612 244.215576 241.982208 Z"/>
        <path id="path15" fill="#000000" stroke="none" d="M 124.049072 249.207382 L 187.605957 270.966919 L 241.401169 249.079636 L 177.84436 227.320023 Z"/>
    </g>
</svg>
