<?xml version="1.0" encoding="UTF-8"?>
<!-- Generated by Pixelmator Pro 3.1.1 -->
<svg width="777" height="1024" viewBox="0 0 777 1024" xmlns="http://www.w3.org/2000/svg" xmlns:xlink="http://www.w3.org/1999/xlink">
    <g id="Dry-Ice-copy">
        <linearGradient id="linearGradient1" x1="388.657585" y1="949.107301" x2="388.657585" y2="1.650545" gradientUnits="userSpaceOnUse">
            <stop offset="0" stop-color="#d050e6" stop-opacity="1"/>
            <stop offset="1" stop-color="#52c3f6" stop-opacity="1"/>
        </linearGradient>
        <path id="Path" fill="url(#linearGradient1)" stroke="none" d="M 602.266479 949.1073 C 993.796997 637.806763 604.448486 435.822571 559.960327 257.844604 C 545.423401 199.688416 486.484039 182.186096 464.129761 259.708557 C 417.767761 420.486328 273.469543 247.032288 328.713135 95.478027 C 373.590454 -27.637573 286.283936 0.149536 262.860687 15.932922 C 135.253723 101.921753 173.267822 299.483276 113.175606 424.806396 C 75.715828 502.931702 -36.458973 599.642639 15.660066 765.166748 C 35.557384 828.358459 102.213333 908.448853 178.123077 942.968567 Z"/>
        <path id="path1" fill="#c4c3cf" stroke="none" opacity="0.75" style="mix-blend-mode:soft-light" d="M 679.25885 571.034668 L 679.25885 902.317993 C 679.259033 917.919983 669.276428 931.771729 654.476379 936.705811 L 403.093323 1020.506165 C 399.3974 1021.738647 395.526886 1022.366882 391.630859 1022.366821 L 289.844116 786.017456 C 411.975586 611.764587 377.823181 658.416382 444.839935 572.875 L 667.040222 543.908691 C 674.808411 550.784363 679.256958 560.660339 679.25885 571.034668 Z"/>
        <path id="path2" fill="#d3d2de" stroke="none" opacity="0.75" style="mix-blend-mode:soft-light" d="M 104.001785 571.034668 L 104.001785 902.317993 C 104.00161 917.919983 113.984192 931.771729 128.784241 936.705811 L 380.167297 1020.506165 C 383.863251 1021.738647 387.733734 1022.366882 391.629761 1022.366821 L 391.629761 640.792969 L 330.904572 555.736816 L 116.219719 543.908936 C 108.451897 550.784668 104.003632 560.660461 104.001785 571.034668 Z"/>
        <path id="path3" fill="#e6e5f2" stroke="none" opacity="0.75" style="mix-blend-mode:soft-light" d="M 667.039795 543.908691 C 663.385254 540.664001 659.111023 538.193726 654.475281 536.647095 L 403.091766 452.846802 C 395.651764 450.366699 387.608215 450.366699 380.168213 452.846802 L 128.785141 536.647095 C 124.149307 538.193604 119.875053 540.663818 116.220634 543.908691 L 391.630219 640.792969 Z"/>
        <path id="path4" fill="#53c2f7" stroke="none" d="M 502.366974 150.942627 C 546.958801 132.135437 518.037903 45.997803 475.278198 49.723572 C 436.333984 53.117065 442.58371 176.156799 502.366974 150.942627 Z"/>
    </g>
    <path id="Path-copy-3" fill="#ffffff" stroke="none" opacity="0.25" d="M 679.25885 571.034668 L 679.25885 902.317993 C 679.259033 917.919983 669.276428 931.771729 654.476379 936.705811 L 403.093323 1020.506165 C 399.3974 1021.738647 395.526886 1022.366882 391.630859 1022.366821 L 289.844116 786.017456 C 411.975586 611.764587 377.823181 658.416382 444.839935 572.875 L 667.040222 543.908691 C 674.808411 550.784363 679.256958 560.660339 679.25885 571.034668 Z"/>
    <path id="Path-copy-2" fill="#ffffff" stroke="none" opacity="0.25" d="M 104.001785 571.034668 L 104.001785 902.317993 C 104.00161 917.919983 113.984192 931.771729 128.784241 936.705811 L 380.167297 1020.506165 C 383.863251 1021.738647 387.733734 1022.366882 391.629761 1022.366821 L 391.629761 640.792969 L 330.904572 555.736816 L 116.219719 543.908936 C 108.451897 550.784668 104.003632 560.660461 104.001785 571.034668 Z"/>
    <path id="Path-copy" fill="#ffffff" stroke="none" opacity="0.25" d="M 667.039795 543.908691 C 663.385254 540.664001 659.111023 538.193726 654.475281 536.647095 L 403.091766 452.846802 C 395.651764 450.366699 387.608215 450.366699 380.168213 452.846802 L 128.785141 536.647095 C 124.149307 538.193604 119.875053 540.663818 116.220634 543.908691 L 391.630219 640.792969 Z"/>
    <g id="Group" style="mix-blend-mode:overlay">
        <path id="path5" fill="#000000" stroke="none" d="M 343.575775 882.196289 L 152.832947 816.623169 C 139.659775 812.094604 128.990128 797.755981 128.990128 784.581848 L 128.990128 665.358154 C 128.990128 652.183899 139.659775 645.181274 152.832947 649.7099 L 343.575775 715.283081 C 356.748932 719.811646 367.418701 734.150146 367.418701 747.324402 L 367.418701 866.548218 C 367.418701 879.722412 356.748932 886.724915 343.575775 882.196289 Z"/>
        <path id="path6" fill="#000000" stroke="none" d="M 224.361542 841.213135 L 272.047302 857.606384 L 272.047302 905.295898 L 224.361542 888.902649 Z"/>
        <path id="path7" fill="#000000" stroke="none" d="M 295.890137 889.647766 L 200.518723 856.861206 C 187.345551 852.332642 176.675766 859.335083 176.675766 872.509338 L 319.732941 921.689148 C 319.732941 908.514954 309.063293 894.176453 295.890137 889.647766 Z"/>
        <path id="path8" fill="#000000" stroke="none" d="M 224.361542 841.213135 L 272.047302 857.606384 L 272.047302 869.528748 L 224.361542 853.135498 Z"/>
        <path id="path9" fill="#000000" stroke="none" d="M 626.065979 836.770508 L 433.536652 908.887207 C 420.240143 913.867737 409.474823 907.132935 409.480072 893.837341 L 409.528046 773.514954 C 409.533295 760.219299 420.307343 745.416504 433.603851 740.435852 L 626.132996 668.319153 C 639.429504 663.338623 650.194824 670.073425 650.189575 683.369019 L 650.141602 803.691406 C 650.136353 816.987061 639.362488 831.789978 626.065979 836.770508 Z"/>
        <path id="path10" fill="#ffffff" stroke="none" d="M 553.857788 887.878723 L 505.725586 905.907898 L 481.669006 890.858032 L 577.933594 854.799683 Z"/>
        <path id="path11" fill="#ffffff" stroke="none" d="M 614.042419 817.213379 L 445.579376 880.315491 C 438.937073 882.803467 433.548401 879.432251 433.551025 872.790527 L 433.589478 776.532654 C 433.592102 769.890747 438.985046 762.481079 445.62735 759.993042 L 614.090393 696.890869 C 620.732605 694.402954 626.121277 697.77417 626.118652 704.415894 L 626.080322 800.673828 C 626.077698 807.315613 620.684631 814.725342 614.042419 817.213379 Z"/>
        <path id="path12" fill="#ffffff" stroke="none" d="M 331.654419 854.253235 L 164.754425 796.876831 C 158.173782 794.614502 152.832947 787.437256 152.832947 780.856079 L 152.832947 685.477051 C 152.832947 678.895874 158.173782 675.390747 164.754425 677.653076 L 331.654419 735.029419 C 338.235077 737.291748 343.575775 744.468994 343.575775 751.050171 L 343.575775 846.429138 C 343.575775 853.010315 338.235077 856.515503 331.654419 854.253235 Z"/>
        <path id="path13" fill="#ffffff" stroke="none" d="M 638.089355 856.327698 L 421.494049 937.458984 C 414.851746 939.94696 409.463074 936.575806 409.465698 929.934021 C 409.468323 923.292236 414.86142 915.882568 421.503601 913.394531 L 638.098999 832.263184 C 644.741211 829.775269 650.129883 833.146423 650.127258 839.788147 C 650.124634 846.429932 644.731628 853.839661 638.089355 856.327698 Z"/>
        <path id="path14" fill="#ffffff" stroke="none" d="M 521.306335 516.228699 L 419.55423 481.413452 C 410.193085 478.210327 397.451172 477.702698 391.112335 480.280151 L 253.314011 536.311646 C 246.975189 538.889099 249.428268 543.580627 258.789368 546.783569 L 360.541504 581.598877 C 369.902618 584.802002 382.644562 585.309448 388.983368 582.732178 L 526.78186 526.7005 C 533.120544 524.123169 530.66748 519.431702 521.306335 516.228699 Z"/>
        <path id="path15" fill="#000000" stroke="none" d="M 264.797058 531.642456 L 400.466553 578.062744 L 515.298645 531.369873 L 379.629303 484.949402 Z"/>
    </g>
</svg>
