<?xml version="1.0" encoding="UTF-8"?>
<svg width="590px" height="240px" viewBox="0 0 590 240" xmlns="http://www.w3.org/2000/svg" xmlns:xlink="http://www.w3.org/1999/xlink" version="1.1">
 <!-- Generated by Pixelmator Pro 2.1.3 -->
 <g id="robin">
  <path id="Path" d="M86.023 239.734 C81.586 239.723 77.875 236.367 77.414 231.953 76.953 227.543 79.898 223.496 84.234 222.57 87.098 221.961 373.488 161.57 562.93 152.965 567.676 152.863 571.66 156.508 571.988 161.242 572.094 163.543 571.281 165.793 569.727 167.496 568.172 169.195 566.004 170.211 563.703 170.309 375.703 178.859 90.684 238.945 87.82 239.551 87.23 239.676 86.625 239.738 86.023 239.734 Z M86.023 239.734" fill="#805333" fill-opacity="1" stroke="none"/>
  <path id="Path-1" d="M571.988 231.055 C570.465 231.051 568.969 230.645 567.648 229.875 L474.414 175.516 C470.273 173.102 468.875 167.785 471.289 163.645 473.707 159.504 479.02 158.105 483.16 160.523 L576.363 214.844 C579.789 216.805 581.461 220.828 580.434 224.641 579.406 228.449 575.934 231.086 571.988 231.055 Z M571.988 231.055" fill="#804537" fill-opacity="1" stroke="none"/>
 </g>
 <g id="swift">
  <g id="group">
   <path id="Path-2" d="M334.198 206.664 C332.26 206.666 330.595 205.285 330.24 203.379 329.888 201.473 330.945 199.588 332.755 198.895 333.079 198.774 333.395 198.63 333.699 198.465 333.28 197.946 332.795 197.481 332.258 197.084 330.448 195.8 330.023 193.292 331.307 191.483 332.592 189.675 335.1 189.248 336.908 190.534 340.032 192.513 341.941 195.939 341.981 199.638 341.728 201.707 340.419 204.558 335.635 206.395 335.176 206.572 334.69 206.662 334.198 206.664 Z M334.198 206.664" fill="#59474e" fill-opacity="1" stroke="none"/>
   <path id="Path-3" d="M357.293 203.692 C355.355 203.694 353.69 202.312 353.335 200.407 352.983 198.501 354.04 196.615 355.85 195.923 356.174 195.8 356.488 195.655 356.794 195.493 356.38 194.979 355.902 194.518 355.373 194.124 354.199 193.294 353.559 191.9 353.691 190.47 353.825 189.04 354.711 187.789 356.016 187.189 357.32 186.589 358.848 186.731 360.019 187.561 363.136 189.545 365.04 192.971 365.076 196.666 364.823 198.731 363.514 201.582 358.73 203.419 358.271 203.596 357.785 203.688 357.293 203.692 Z M357.293 203.692" fill="#59474e" fill-opacity="1" stroke="none"/>
   <path id="Path-4" d="M313.11 199.197 C312.886 199.197 312.662 199.179 312.439 199.141 310.253 198.772 308.778 196.7 309.147 194.513 L311.958 177.806 C312.175 176.372 313.15 175.166 314.506 174.652 315.862 174.139 317.389 174.398 318.503 175.327 319.615 176.256 320.141 177.712 319.879 179.138 L317.068 195.847 C316.742 197.78 315.07 199.194 313.11 199.197 Z M313.11 199.197" fill="#59474e" fill-opacity="1" stroke="none"/>
   <path id="Path-5" d="M335.201 197.189 C334.975 197.189 334.749 197.171 334.527 197.133 333.477 196.954 332.54 196.366 331.922 195.498 331.305 194.63 331.059 193.551 331.237 192.501 L334.33 174.226 C334.569 172.81 335.547 171.63 336.892 171.131 338.237 170.63 339.748 170.887 340.855 171.801 341.96 172.716 342.495 174.152 342.254 175.567 L339.157 193.855 C338.825 195.78 337.156 197.187 335.201 197.189 Z M335.201 197.189" fill="#59474e" fill-opacity="1" stroke="none"/>
   <path id="Path-6" d="M357.685 194.858 C356.758 194.858 355.857 194.536 355.139 193.947 L318.308 163.704 C315.026 160.954 314.479 156.112 317.062 152.699 319.521 149.484 327.807 138.64 331.233 135.226 332.242 134.181 333.735 133.764 335.14 134.131 336.543 134.498 337.64 135.595 338.007 137 338.374 138.403 337.957 139.896 336.912 140.905 334.475 143.344 328.136 151.404 323.453 157.566 L360.236 187.738 C361.549 188.814 362.042 190.599 361.469 192.197 360.898 193.795 359.383 194.86 357.685 194.858 Z M357.685 194.858" fill="#59474e" fill-opacity="1" stroke="none"/>
   <path id="Path-7" d="M334.59 197.83 C333.661 197.832 332.761 197.51 332.045 196.919 L291.639 163.704 C288.37 160.941 287.84 156.101 290.433 152.699 292.208 150.361 298.33 142.328 302.351 137.656 303.257 136.478 304.739 135.894 306.205 136.141 307.672 136.389 308.881 137.427 309.349 138.837 309.818 140.249 309.467 141.804 308.44 142.878 304.571 147.372 298.576 155.237 296.828 157.542 L337.125 190.714 C338.434 191.792 338.926 193.574 338.353 195.169 337.781 196.766 336.27 197.83 334.574 197.83 Z M334.59 197.83" fill="#59474e" fill-opacity="1" stroke="none"/>
  </g>
  <path id="Path-8" d="M465.443 0.708 C511.475 -0.38 560.803 0.512 589.688 61.076 589.688 61.076 539.76 51.832 510.305 84.562 481.835 116.198 352.885 138.601 352.885 138.601 268.091 166.904 0.8 148.239 0.8 148.239 186.199 121.662 251.135 96.625 251.135 96.625 203.912 104.324 25.256 83.415 25.256 83.415 142.256 76.778 265.955 5.423 465.443 0.708 Z" fill="#ff5722" fill-opacity="1" stroke="none"/>
 </g>
</svg>
