<?xml version="1.0" encoding="UTF-8"?>
<!-- Generated by Pixelmator Pro 3.6.7 -->
<svg width="364" height="480" viewBox="0 0 364 480" xmlns="http://www.w3.org/2000/svg">
    <g id="Dry-Ice">
        <linearGradient id="linearGradient1" x1="183.51795" y1="478.076481" x2="183.51795" y2="0.773706" gradientUnits="userSpaceOnUse">
            <stop offset="0" stop-color="#d050e6" stop-opacity="1"/>
            <stop offset="1" stop-color="#52c3f6" stop-opacity="1"/>
        </linearGradient>
        <path id="Path" fill="url(#linearGradient1)" stroke="none" d="M 282.142853 444.894043 C 462.354523 295.023407 283.165039 204.29184 262.323761 120.864655 C 255.513672 93.603943 227.902435 85.39975 217.430161 121.738434 C 195.711014 197.102966 128.111862 115.796448 153.99173 44.755341 C 175.01535 -12.955109 134.115005 0.070129 123.141945 7.468536 C 63.362103 47.775818 81.170509 140.382782 53.019199 199.127991 C 35.470478 235.749237 -4.111971 278.137695 7.336246 358.671906 C 14.498167 409.053528 169.373703 538.677002 282.142853 444.894043 Z"/>
        <path id="path1" fill="#c4c3cf" stroke="none" opacity="0.75" style="mix-blend-mode:soft-light" d="M 318.211334 267.672516 L 318.211334 422.961548 C 318.211426 430.274994 313.534912 436.768005 306.601532 439.080841 L 188.836502 478.362274 C 187.105087 478.940002 185.29187 479.234497 183.466721 479.234467 L 135.782822 368.445679 C 192.997574 286.764648 176.998245 308.63266 208.393494 268.535156 L 312.487305 254.957184 C 316.126465 258.180176 318.21048 262.809509 318.211334 267.672516 Z"/>
        <path id="path2" fill="#d3d2de" stroke="none" opacity="0.75" style="mix-blend-mode:soft-light" d="M 48.721558 267.672516 L 48.721558 422.961548 C 48.721478 430.274994 53.397999 436.768005 60.331356 439.080841 L 178.09639 478.362274 C 179.82782 478.940002 181.641037 479.234497 183.466202 479.234467 L 183.466202 300.371704 L 155.018372 260.501617 L 54.445274 254.957321 C 50.806293 258.180298 48.722424 262.809601 48.721558 267.672516 Z"/>
        <path id="path3" fill="#e6e5f2" stroke="none" opacity="0.75" style="mix-blend-mode:soft-light" d="M 312.487122 254.957184 C 310.775055 253.436249 308.772736 252.278305 306.601013 251.553345 L 188.835785 212.271942 C 185.350388 211.109406 181.582214 211.109406 178.096817 212.271942 L 60.331776 251.553345 C 58.160034 252.278244 56.157684 253.436188 54.445702 254.957184 L 183.4664 300.371704 Z"/>
        <path id="path4" fill="#53c2f7" stroke="none" d="M 235.343079 70.754364 C 256.232971 61.938477 242.684433 21.561462 222.652847 23.307922 C 204.408722 24.898621 207.336502 82.573486 235.343079 70.754364 Z"/>
    </g>
    <path id="Path-copy-3" fill="#ffffff" stroke="none" opacity="0.252985" d="M 318.211334 267.672516 L 318.211334 422.961548 C 318.211426 430.274994 313.534912 436.768005 306.601532 439.080841 L 188.836502 478.362274 C 187.105087 478.940002 185.29187 479.234497 183.466721 479.234467 L 135.782822 368.445679 C 192.997574 286.764648 176.998245 308.63266 208.393494 268.535156 L 312.487305 254.957184 C 316.126465 258.180176 318.21048 262.809509 318.211334 267.672516 Z"/>
    <path id="Path-copy-2" fill="#ffffff" stroke="none" opacity="0.252985" d="M 48.721558 267.672516 L 48.721558 422.961548 C 48.721478 430.274994 53.397999 436.768005 60.331356 439.080841 L 178.09639 478.362274 C 179.82782 478.940002 181.641037 479.234497 183.466202 479.234467 L 183.466202 300.371704 L 155.018372 260.501617 L 54.445274 254.957321 C 50.806293 258.180298 48.722424 262.809601 48.721558 267.672516 Z"/>
    <path id="Path-copy" fill="#e6e5f2" stroke="none" opacity="0.25" d="M 312.487122 254.957184 C 310.775055 253.436249 308.772736 252.278305 306.601013 251.553345 L 188.835785 212.271942 C 185.350388 211.109406 181.582214 211.109406 178.096817 212.271942 L 60.331776 251.553345 C 58.160034 252.278244 56.157684 253.436188 54.445702 254.957184 L 183.4664 300.371704 Z"/>
    <g id="Group" style="mix-blend-mode:overlay">
        <path id="path5" fill="#000000" stroke="none" d="M 160.954407 413.52951 L 71.59742 382.792114 C 65.426201 380.669342 60.427811 373.94812 60.427811 367.772736 L 60.427811 311.886627 C 60.427811 305.711182 65.426201 302.428711 71.59742 304.551514 L 160.954407 335.28894 C 167.125626 337.411713 172.124084 344.132874 172.124084 350.308289 L 172.124084 406.194458 C 172.124084 412.369873 167.125626 415.652283 160.954407 413.52951 Z"/>
        <path id="path6" fill="#000000" stroke="none" d="M 105.106308 394.318665 L 127.445587 402.002991 L 127.445587 424.357452 L 105.106308 416.673126 Z"/>
        <path id="path7" fill="#000000" stroke="none" d="M 138.615189 417.022369 L 93.936699 401.653717 C 87.76548 399.530914 82.767029 402.813324 82.767029 408.988739 L 149.784805 432.041809 C 149.784805 425.866364 144.786407 419.145203 138.615189 417.022369 Z"/>
        <path id="path8" fill="#000000" stroke="none" d="M 105.106308 394.318665 L 127.445587 402.002991 L 127.445587 407.591614 L 105.106308 399.907288 Z"/>
        <path id="path9" fill="#000000" stroke="none" d="M 293.292175 392.236176 L 203.098251 426.040894 C 196.869263 428.375488 191.82605 425.218567 191.828506 418.986237 L 191.850983 362.585114 C 191.853439 356.352783 196.900742 349.414001 203.12973 347.079285 L 293.323578 313.274597 C 299.552582 310.940002 304.595795 314.096924 304.593323 320.329254 L 304.570831 376.730347 C 304.56839 382.962708 299.521149 389.90155 293.292175 392.236176 Z"/>
        <path id="path10" fill="#ffffff" stroke="none" d="M 259.464905 416.193146 L 236.916489 424.644348 L 225.646744 417.589722 L 270.743652 400.687378 Z"/>
        <path id="path11" fill="#ffffff" stroke="none" d="M 287.659515 383.068756 L 208.739883 412.647888 C 205.628174 413.814117 203.10376 412.233856 203.10498 409.120544 L 203.122986 363.999664 C 203.124222 360.886292 205.65065 357.412994 208.76236 356.246765 L 287.682007 326.667603 C 290.79364 325.501373 293.318085 327.081665 293.316833 330.194946 L 293.298889 375.315857 C 293.297668 378.429199 290.771179 381.902496 287.659515 383.068756 Z"/>
        <path id="path12" fill="#ffffff" stroke="none" d="M 155.369644 400.431213 L 77.182251 373.536011 C 74.099426 372.475525 71.59742 369.111206 71.59742 366.026276 L 71.59742 321.317383 C 71.59742 318.232452 74.099426 316.589417 77.182251 317.649902 L 155.369644 344.545044 C 158.452469 345.60553 160.954407 348.969849 160.954407 352.054779 L 160.954407 396.763672 C 160.954407 399.848572 158.452469 401.491638 155.369644 400.431213 Z"/>
        <path id="path13" fill="#ffffff" stroke="none" d="M 298.924744 401.403625 L 197.456665 439.433899 C 194.344955 440.600159 191.820541 439.019897 191.821762 435.906586 C 191.822998 432.793243 194.349487 429.319946 197.461136 428.153687 L 298.92926 390.123383 C 302.040924 388.957153 304.565338 390.537384 304.564117 393.650696 C 304.562866 396.764038 302.036438 400.237335 298.924744 401.403625 Z"/>
        <path id="path14" fill="#ffffff" stroke="none" d="M 244.215576 241.982208 L 196.547928 225.662552 C 192.162537 224.161087 186.193344 223.923157 183.223801 225.131317 L 118.669624 251.396103 C 115.700089 252.604263 116.849274 254.803421 121.234665 256.30481 L 168.902328 272.624451 C 173.28772 274.125916 179.256912 274.363831 182.22644 273.155701 L 246.780685 246.890854 C 249.750153 245.682755 248.600967 243.483612 244.215576 241.982208 Z"/>
        <path id="path15" fill="#000000" stroke="none" d="M 124.049072 249.207382 L 187.605957 270.966919 L 241.401169 249.079636 L 177.84436 227.320023 Z"/>
    </g>
    <g id="ngrok-blue" style="mix-blend-mode:luminosity;isolation:isolate">
        <g id="g1">
            <path id="path16" fill="#ffffff" stroke="none" d="M 146.50412 230.322357 C 142.999588 226.472977 138.665054 224.535095 133.513657 224.535095 C 130.338516 224.535095 127.413681 225.14151 124.725998 226.367508 C 122.038315 227.593506 119.719528 229.254547 117.75647 231.376984 C 115.806587 233.512604 114.265114 235.990967 113.132072 238.864822 C 111.999039 241.72551 111.43251 244.823471 111.43251 248.171906 C 111.43251 251.454437 111.959511 254.44693 113.000328 257.149414 C 114.054321 259.838715 115.516731 262.145691 117.413918 264.070404 C 119.311111 265.995087 121.564018 267.497925 124.172653 268.578918 C 126.781281 269.659912 129.640244 270.200409 132.749527 270.200409 C 134.159241 270.200409 135.463547 270.094971 136.649292 269.897217 C 137.835037 269.699463 138.968079 269.369904 140.048416 268.921692 C 141.128754 268.460266 142.182755 267.880249 143.23674 267.181549 C 144.277557 266.469666 145.371078 265.573242 146.50412 264.505432 L 146.50412 275.934937 L 146.490952 275.934937 L 146.490952 277.042297 L 132.103943 277.042297 L 121.287346 289.223236 L 121.287346 291.319305 L 161.879242 291.319305 L 161.879242 286.375732 L 161.879242 286.375732 L 161.879242 225.734741 L 146.50412 225.734741 L 146.50412 230.322357 Z M 146.4646 251.269867 C 145.924423 252.482697 145.212982 253.550507 144.343445 254.460114 C 143.460724 255.369736 142.419907 256.06842 141.207809 256.58255 C 139.995712 257.09668 138.704575 257.347168 137.347565 257.347168 C 135.924667 257.347168 134.607178 257.09668 133.395081 256.58255 C 132.182999 256.06842 131.128998 255.369736 130.246292 254.460114 C 129.363571 253.550507 128.678467 252.482697 128.164642 251.269867 C 127.650826 250.057053 127.400505 248.725586 127.400505 247.315018 C 127.400505 245.957199 127.664001 244.678452 128.204178 243.492004 C 128.744339 242.305542 129.455795 241.277283 130.378036 240.394043 C 131.287109 239.510788 132.327911 238.812103 133.513657 238.271606 C 134.699402 237.73111 135.977371 237.467453 137.334381 237.467453 C 138.638702 237.467453 139.89032 237.717926 141.115585 238.232056 C 142.327682 238.733002 143.394852 239.44487 144.303925 240.354492 C 145.212982 241.264099 145.924423 242.305542 146.477783 243.492004 C 147.017944 244.678452 147.281433 245.983566 147.281433 247.407303 C 147.26828 248.765137 147.004761 250.057053 146.4646 251.269867 Z"/>
            <path id="path17" fill="#ffffff" stroke="none" d="M 103.606613 231.034225 C 102.789772 230.071884 101.867523 229.241364 100.87941 228.503128 C 99.996689 227.857162 99.061272 227.290314 98.046806 226.828903 C 97.559326 226.604797 97.045509 226.420242 96.505341 226.248856 C 95.72802 225.998398 94.884827 225.827011 94.015282 225.682007 L 83.053757 225.682007 L 75.807556 233.947632 L 75.807556 232.985291 L 75.807556 225.853378 L 60.432434 225.853378 L 60.432434 269.462158 L 75.807556 269.462158 L 75.807556 250.755737 L 75.807556 240.038101 L 77.941887 240.038101 L 82.223732 240.038101 L 90.062805 240.038101 L 90.247253 240.038101 L 90.247253 240.038101 L 91.446175 240.011734 L 91.446175 269.448975 L 106.821297 269.448975 L 106.821297 242.173721 C 106.821297 239.853546 106.597321 237.783844 106.149368 235.9646 C 105.701424 234.158554 104.858231 232.523895 103.606613 231.034225 Z"/>
            <path id="path18" fill="#ffffff" stroke="none" d="M 207.095535 225.734741 L 195.699234 225.734741 C 195.699234 225.734741 191.628189 225.734741 190.323883 225.734741 L 183.657364 233.248947 L 183.657364 225.734741 L 168.269073 225.734741 L 168.269073 269.343506 L 183.683731 269.343506 L 183.696899 240.156754 L 188.756058 240.156754 L 194.882401 240.156754 L 207.095535 226.341141 L 207.095535 225.734741 Z"/>
            <path id="path19" fill="#ffffff" stroke="none" d="M 290.176514 245.878098 L 311.203674 226.472977 L 311.203674 225.734741 L 290.940674 225.734741 L 274.814606 241.461853 L 274.814606 198.789032 L 259.439453 198.789032 L 259.439453 269.330353 L 274.814606 269.330353 L 274.814606 251.573074 L 291.717987 269.330353 L 312.468475 269.330353 L 312.468475 268.499817 Z"/>
            <path id="path20" fill="#ffffff" stroke="none" d="M 247.423935 230.704666 C 245.078812 228.634964 242.298904 227.026657 239.097412 225.866562 C 235.895889 224.706482 232.430878 224.126434 228.689209 224.126434 C 224.894836 224.126434 221.39032 224.71965 218.201981 225.906113 C 215.000488 227.09256 212.246933 228.727234 209.914963 230.783752 C 207.596191 232.85347 205.778046 235.292282 204.47374 238.100235 C 203.169418 240.908173 202.523834 243.927032 202.523834 247.15683 C 202.523834 250.72937 203.169418 253.972351 204.47374 256.885742 C 205.778046 259.799164 207.569839 262.303894 209.875443 264.399963 C 212.167877 266.496033 214.895081 268.117523 218.070236 269.251251 C 221.245392 270.384979 224.69722 270.951843 228.438889 270.951843 C 232.233276 270.951843 235.750961 270.384979 239.018341 269.251251 C 242.272552 268.117523 245.065643 266.5224 247.384415 264.439514 C 249.703201 262.369812 251.5345 259.904633 252.865189 257.043945 C 254.195847 254.183273 254.867752 251.032578 254.867752 247.565506 C 254.867752 244.111588 254.209015 240.947723 252.917877 238.087036 C 251.600388 235.239548 249.769073 232.774368 247.423935 230.704666 Z M 237.819443 251.348969 C 237.279266 252.561783 236.56781 253.629593 235.698273 254.539215 C 234.815567 255.448837 233.774734 256.147522 232.562637 256.661652 C 231.337387 257.175781 230.059418 257.42627 228.702408 257.42627 C 227.345367 257.42627 226.05423 257.175781 224.828979 256.661652 C 223.616882 256.147522 222.562897 255.448837 221.693344 254.539215 C 220.810623 253.629593 220.11235 252.561783 219.572174 251.348969 C 219.032013 250.136154 218.768509 248.791504 218.768509 247.315018 C 218.768509 245.957199 219.032013 244.678452 219.572174 243.492004 C 220.11235 242.305542 220.810623 241.264099 221.693344 240.354492 C 222.576065 239.44487 223.616882 238.733002 224.828979 238.232056 C 226.05423 237.717926 227.332199 237.467453 228.702408 237.467453 C 230.059418 237.467453 231.350555 237.717926 232.562637 238.232056 C 233.774734 238.733002 234.828735 239.44487 235.698273 240.354492 C 236.580994 241.264099 237.279266 242.331909 237.819443 243.544739 C 238.359589 244.757553 238.623108 246.049469 238.623108 247.407303 C 238.623108 248.817871 238.359589 250.136154 237.819443 251.348969 Z"/>
        </g>
        <g id="g2">
            <path id="path21" fill="#02238f" stroke="none" d="M 146.50412 230.322357 C 142.999588 226.472977 138.665054 224.535095 133.513657 224.535095 C 130.338516 224.535095 127.413681 225.14151 124.725998 226.367508 C 122.038315 227.593506 119.719528 229.254547 117.75647 231.376984 C 115.806587 233.512604 114.265114 235.990967 113.132072 238.864822 C 111.999039 241.72551 111.43251 244.823471 111.43251 248.171906 C 111.43251 251.454437 111.959511 254.44693 113.000328 257.149414 C 114.054321 259.838715 115.516731 262.145691 117.413918 264.070404 C 119.311111 265.995087 121.564018 267.497925 124.172653 268.578918 C 126.781281 269.659912 129.640244 270.200409 132.749527 270.200409 C 134.159241 270.200409 135.463547 270.094971 136.649292 269.897217 C 137.835037 269.699463 138.968079 269.369904 140.048416 268.921692 C 141.128754 268.460266 142.182755 267.880249 143.23674 267.181549 C 144.277557 266.469666 145.371078 265.573242 146.50412 264.505432 L 146.50412 275.934937 L 146.490952 275.934937 L 146.490952 277.042297 L 132.103943 277.042297 L 121.287346 289.223236 L 121.287346 291.319305 L 161.879242 291.319305 L 161.879242 286.375732 L 161.879242 286.375732 L 161.879242 225.734741 L 146.50412 225.734741 L 146.50412 230.322357 Z M 146.4646 251.269867 C 145.924423 252.482697 145.212982 253.550507 144.343445 254.460114 C 143.460724 255.369736 142.419907 256.06842 141.207809 256.58255 C 139.995712 257.09668 138.704575 257.347168 137.347565 257.347168 C 135.924667 257.347168 134.607178 257.09668 133.395081 256.58255 C 132.182999 256.06842 131.128998 255.369736 130.246292 254.460114 C 129.363571 253.550507 128.678467 252.482697 128.164642 251.269867 C 127.650826 250.057053 127.400505 248.725586 127.400505 247.315018 C 127.400505 245.957199 127.664001 244.678452 128.204178 243.492004 C 128.744339 242.305542 129.455795 241.277283 130.378036 240.394043 C 131.287109 239.510788 132.327911 238.812103 133.513657 238.271606 C 134.699402 237.73111 135.977371 237.467453 137.334381 237.467453 C 138.638702 237.467453 139.89032 237.717926 141.115585 238.232056 C 142.327682 238.733002 143.394852 239.44487 144.303925 240.354492 C 145.212982 241.264099 145.924423 242.305542 146.477783 243.492004 C 147.017944 244.678452 147.281433 245.983566 147.281433 247.407303 C 147.26828 248.765137 147.004761 250.057053 146.4646 251.269867 Z"/>
            <path id="path22" fill="#02238f" stroke="none" d="M 103.606613 231.034225 C 102.789772 230.071884 101.867523 229.241364 100.87941 228.503128 C 99.996689 227.857162 99.061272 227.290314 98.046806 226.828903 C 97.559326 226.604797 97.045509 226.420242 96.505341 226.248856 C 95.72802 225.998398 94.884827 225.827011 94.015282 225.682007 L 83.053757 225.682007 L 75.807556 233.947632 L 75.807556 232.985291 L 75.807556 225.853378 L 60.432434 225.853378 L 60.432434 269.462158 L 75.807556 269.462158 L 75.807556 250.755737 L 75.807556 240.038101 L 77.941887 240.038101 L 82.223732 240.038101 L 90.062805 240.038101 L 90.247253 240.038101 L 90.247253 240.038101 L 91.446175 240.011734 L 91.446175 269.448975 L 106.821297 269.448975 L 106.821297 242.173721 C 106.821297 239.853546 106.597321 237.783844 106.149368 235.9646 C 105.701424 234.158554 104.858231 232.523895 103.606613 231.034225 Z"/>
            <path id="path23" fill="#02238f" stroke="none" d="M 207.095535 225.734741 L 195.699234 225.734741 C 195.699234 225.734741 191.628189 225.734741 190.323883 225.734741 L 183.657364 233.248947 L 183.657364 225.734741 L 168.269073 225.734741 L 168.269073 269.343506 L 183.683731 269.343506 L 183.696899 240.156754 L 188.756058 240.156754 L 194.882401 240.156754 L 207.095535 226.341141 L 207.095535 225.734741 Z"/>
            <path id="path24" fill="#02238f" stroke="none" d="M 290.176514 245.878098 L 311.203674 226.472977 L 311.203674 225.734741 L 290.940674 225.734741 L 274.814606 241.461853 L 274.814606 198.789032 L 259.439453 198.789032 L 259.439453 269.330353 L 274.814606 269.330353 L 274.814606 251.573074 L 291.717987 269.330353 L 312.468475 269.330353 L 312.468475 268.499817 Z"/>
            <path id="path25" fill="#02238f" stroke="none" d="M 247.423935 230.704666 C 245.078812 228.634964 242.298904 227.026657 239.097412 225.866562 C 235.895889 224.706482 232.430878 224.126434 228.689209 224.126434 C 224.894836 224.126434 221.39032 224.71965 218.201981 225.906113 C 215.000488 227.09256 212.246933 228.727234 209.914963 230.783752 C 207.596191 232.85347 205.778046 235.292282 204.47374 238.100235 C 203.169418 240.908173 202.523834 243.927032 202.523834 247.15683 C 202.523834 250.72937 203.169418 253.972351 204.47374 256.885742 C 205.778046 259.799164 207.569839 262.303894 209.875443 264.399963 C 212.167877 266.496033 214.895081 268.117523 218.070236 269.251251 C 221.245392 270.384979 224.69722 270.951843 228.438889 270.951843 C 232.233276 270.951843 235.750961 270.384979 239.018341 269.251251 C 242.272552 268.117523 245.065643 266.5224 247.384415 264.439514 C 249.703201 262.369812 251.5345 259.904633 252.865189 257.043945 C 254.195847 254.183273 254.867752 251.032578 254.867752 247.565506 C 254.867752 244.111588 254.209015 240.947723 252.917877 238.087036 C 251.600388 235.239548 249.769073 232.774368 247.423935 230.704666 Z M 237.819443 251.348969 C 237.279266 252.561783 236.56781 253.629593 235.698273 254.539215 C 234.815567 255.448837 233.774734 256.147522 232.562637 256.661652 C 231.337387 257.175781 230.059418 257.42627 228.702408 257.42627 C 227.345367 257.42627 226.05423 257.175781 224.828979 256.661652 C 223.616882 256.147522 222.562897 255.448837 221.693344 254.539215 C 220.810623 253.629593 220.11235 252.561783 219.572174 251.348969 C 219.032013 250.136154 218.768509 248.791504 218.768509 247.315018 C 218.768509 245.957199 219.032013 244.678452 219.572174 243.492004 C 220.11235 242.305542 220.810623 241.264099 221.693344 240.354492 C 222.576065 239.44487 223.616882 238.733002 224.828979 238.232056 C 226.05423 237.717926 227.332199 237.467453 228.702408 237.467453 C 230.059418 237.467453 231.350555 237.717926 232.562637 238.232056 C 233.774734 238.733002 234.828735 239.44487 235.698273 240.354492 C 236.580994 241.264099 237.279266 242.331909 237.819443 243.544739 C 238.359589 244.757553 238.623108 246.049469 238.623108 247.407303 C 238.623108 248.817871 238.359589 250.136154 237.819443 251.348969 Z"/>
        </g>
    </g>
</svg>
